<svg width="45.000000" height="60.000000" viewBox="0 0 45 60" fill="none" xmlns="http://www.w3.org/2000/svg" xmlns:xlink="http://www.w3.org/1999/xlink">
    <rect id="gerb colour2" width="45.000000" height="60.000000" fill="#FFFFFF" fill-opacity="0"/>
    <path id="path" d="M44.99 38.76L44.99 7.9L22.5 0L0 7.9L0 38.76C0 38.76 -0.26 46.22 9.03 50.67C17.83 54.89 20.87 55.83 21.66 58.43C21.68 58.5 21.71 58.9 21.73 59.28C21.75 59.68 22.09 60 22.49 60C22.89 60 23.23 59.68 23.25 59.28C23.27 58.92 23.29 58.54 23.31 58.48C24.08 55.84 27.11 54.91 35.95 50.67C45.25 46.23 44.99 38.76 44.99 38.76Z" fill="#453089" fill-opacity="1.000000" fill-rule="evenodd"/>
    <path id="Слияние" d="M36.82 18.47C38.22 17.98 39.68 17.18 40.71 16.46C40.95 16.3 41.35 16.53 41.29 16.8C40.23 21.56 32.41 21.91 32.41 21.91C33.22 22.33 34.16 22.48 35.32 22.36C35.58 22.34 35.77 22.55 35.67 22.76C35.38 23.36 34.9 23.82 34.26 24.1C33.36 24.49 31.05 24.08 31.05 24.08C31.34 24.48 32.06 25.07 33.8 24.89C34.06 24.86 34.25 25.09 34.15 25.29C33.88 25.82 33.43 26.22 32.83 26.46C31.83 26.86 29.18 26.22 29.18 26.22C29.12 26.59 29.43 27.12 30.55 27.16C30.8 27.18 30.94 27.43 30.8 27.61C30.4 28.1 30.13 28.26 29.5 28.39C28.45 28.59 27.72 28.36 26.95 27.82C26.95 27.82 25.06 26.44 24.6 28.3C27.65 28.79 28.81 29.02 29.59 29.67C29.8 29.84 30.01 29.98 30.18 30.17C30.42 30.29 30.65 30.45 30.81 30.58C31.6 31.22 32.43 31.66 33.49 31.45C34.61 31.22 35.53 30.28 35.73 29.19C35.81 28.72 35.76 28.21 35.7 27.71C35.65 27.27 35.59 26.83 35.64 26.41C35.72 25.68 36.53 24.09 37.32 23.33C37.33 23.48 37.29 23.7 37.24 23.94C37.16 24.4 37.06 24.96 37.24 25.3L37.95 24.24C38.11 26.82 38.86 26.29 39.29 27.27C39.82 28.47 39.57 29.76 38.49 30.53C38.76 30.68 39.08 30.72 39.38 30.66C38.84 31.51 37.88 32.1 36.86 32.19C37.12 32.48 37.51 32.65 37.9 32.65C37.33 33.22 36.49 33.53 35.68 33.48C35.83 33.64 35.99 33.8 36.14 33.96C35.51 34.51 34.51 34.57 33.81 34.12C33.91 34.34 34.01 34.55 34.12 34.77C33.2 34.85 32.36 34.08 32.23 33.43C32.11 32.77 31.45 32.23 31.05 32.26C31.05 32.28 31.27 33.33 31.27 33.36C31.31 34.28 31.1 35.24 30.95 35.92C30.86 36.31 30.8 36.62 30.81 36.77C30.84 37.19 31.17 37.74 31.6 37.96C32.03 38.19 33.37 38.56 33.61 38.55C33.84 38.54 34.22 38.53 34.39 38.69C34.57 38.88 34.62 38.78 34.68 39.11C34.7 39.26 34.68 39.4 34.66 39.54C34.64 39.71 34.62 39.88 34.66 40.09C34.75 40.48 34.8 41.19 35.24 41.99C35.77 42.98 36 43.88 36 43.88C36 43.88 36.39 44.37 36.92 44.55C37.48 44.74 37.62 44.87 37.96 45.46C38.21 45.9 38.54 46.19 38.64 46.35C38.61 46.35 38.58 46.33 38.54 46.33C38.24 46.35 37.92 46.36 37.62 46.33C37.47 46.31 37.4 46.28 37.28 46.15C37.18 46.04 37.1 45.91 37.03 45.77C37.05 45.92 37.09 46.07 37.16 46.23C37.2 46.38 37.4 46.55 37.56 46.58C37.8 46.67 38.04 46.7 38.29 46.74C38.4 46.99 38.51 47.37 38.49 47.49C38.45 47.47 38.42 47.43 38.37 47.43C38.03 47.39 37.67 47.34 37.36 47.24C37.21 47.19 37.08 47.11 36.98 46.98C36.88 46.85 36.79 46.67 36.66 46.56C36.76 46.71 36.79 46.87 36.86 47.04C36.93 47.21 37.08 47.37 37.25 47.46C37.52 47.6 37.78 47.71 38.04 47.8L38.04 48.01C38.04 48.01 36.93 48 36.72 47.77C36.5 47.55 35.94 47.07 35.94 47.07C35.94 47.07 35.47 45.91 35.15 45.71C34.84 45.5 34.16 45.18 34.05 43.96C33.93 42.73 33.47 41.41 32.55 40.93C31.63 40.46 28.99 40.54 27.7 39.66C25.95 38.47 25.82 36.75 25.7 35.35C25.68 35.07 25.66 34.79 25.63 34.54C25.51 33.65 24.86 33.41 24.32 33.24C23.13 32.88 21.4 33.17 21.17 33.22C19.11 33.67 17.54 33.23 16.57 32.95C16.05 32.8 15.69 32.7 15.53 32.81C15 33.2 14.96 34.06 15.1 34.54C15.09 34.82 14.92 35 14.92 35C14.92 35 14.05 35.39 13.51 35C13.2 34.78 12.82 34.83 12.19 34.73C10.75 34.7 9.75 33.57 8.81 33.15C7.88 32.73 6.74 32.38 6.55 32.31C6.53 32.31 6.48 32.3 6.42 32.3C6.17 32.28 5.68 32.25 5.75 31.9C5.77 31.86 5.82 31.75 5.75 31.64C5.72 31.59 4.84 31.14 4.67 30.76C4.5 30.39 4.55 29.95 4.4 29.58C4.26 29.21 3.92 28.91 3.89 28.51C3.89 28.39 3.91 28.28 3.93 28.16C3.94 28.07 3.96 27.97 3.96 27.87C3.97 27.66 3.84 27.41 3.62 27.39C3.74 27.26 3.93 27.26 4.09 27.31L4.28 27.51C4.36 27.61 4.54 27.71 4.6 27.72C4.69 27.77 4.78 27.83 4.82 27.91C4.86 27.99 4.87 28.13 4.9 28.24C4.92 28.11 4.95 28.04 4.96 27.88C4.95 27.73 4.87 27.62 4.79 27.51C4.68 27.39 4.64 27.37 4.59 27.27L4.44 27.02C4.44 26.8 4.36 26.59 4.2 26.44C4.44 26.33 4.72 26.38 4.93 26.52C5.01 26.62 5.06 26.73 5.14 26.83C5.23 26.98 5.45 27.16 5.58 27.22C5.7 27.32 5.83 27.44 5.89 27.59C5.94 27.72 5.87 27.92 5.79 28.07C5.9 27.93 6.02 27.79 6.02 27.56C5.99 27.36 5.88 27.19 5.76 27.04C5.6 26.87 5.54 26.82 5.46 26.64C5.39 26.5 5.3 26.28 5.24 26.12C5.23 26.03 5.23 25.94 5.2 25.87C5.47 25.88 5.66 26.12 5.82 26.33C5.94 26.5 6.06 26.68 6.18 26.84C6.33 27.05 6.49 27.28 6.51 27.53C6.53 27.77 6.44 27.99 6.35 28.2C6.33 28.27 6.3 28.33 6.28 28.39C6.11 28.87 6.3 29.25 6.5 29.65C6.53 29.71 6.55 29.76 6.58 29.81C6.58 29.81 6.63 30.75 7.95 31.04C8.33 31.13 8.81 31.28 9.32 31.44C10.54 31.81 11.95 32.25 12.85 32.08C13.14 32.02 13.09 30.6 12.83 30.28C12.09 29.15 11.42 25.83 13.24 24.31C13.34 24.23 13.32 24.01 13.19 24.05C12.87 24.17 12.65 24.27 12.49 24.35C12.89 23.48 13.8 22.72 14.78 22.66C14.48 22.5 13.9 22.27 13.52 22.44C14.33 20.72 16.97 21.2 17.43 21.28C18.23 21.34 19.39 20.22 18.42 20.57C17.93 20.74 17.4 20.84 16.95 20.66C16.53 20.49 16.06 20.5 15.69 20.51C15.57 20.51 15.45 20.52 15.35 20.51C14.97 20.49 14.25 20.41 14.25 20.41C14.25 20.41 13.9 20.53 13.61 20.3C13.31 20.07 13.32 19.8 13.44 19.69C13.57 19.58 14.37 19.52 14.95 19.46C15.52 19.39 16.53 19.3 16.68 18.49C16.76 18.04 16.4 17.52 16.14 17.13C16.05 17 15.98 16.88 15.93 16.79C15.9 16.75 15.87 16.69 15.83 16.63C15.67 16.37 15.43 15.97 15.45 15.48C15.47 15.08 15.54 14.7 15.69 14.52C15.76 14.42 15.89 14.39 15.98 14.37C15.94 14.35 15.95 14.26 15.91 14.24C15.8 14.18 15.69 14.13 15.71 14.01C15.73 13.84 15.84 13.68 15.99 13.62C16.15 13.56 16.62 13.69 16.7 13.76C16.78 13.84 16.91 14.24 17.06 14.44C17.2 14.64 17.64 15.12 17.73 15.33C17.82 15.52 18.22 16.1 18.52 16.07C18.82 16.04 19.2 16.18 19.52 16.39C19.82 16.6 20.58 17.16 20.73 17.39C20.89 17.62 20.96 18.2 20.96 18.2C21.2 17.78 21.1 17.34 21.06 17.18C21.06 17.15 21.13 17.08 21.15 17.07C21.29 16.93 21.52 16.76 21.85 16.58C22.37 16.3 23.03 15.58 23.03 15.58C23.69 15.03 23.6 15.53 23.36 16.03C23.11 16.53 22.44 18.55 22.21 18.87C22.07 19.06 21.86 19.19 21.71 19.27C21.64 19.51 21.49 19.89 21.33 20.02C20.94 20.34 20.92 20.66 20.9 20.99C20.89 21.08 20.89 21.17 20.88 21.26C20.76 22.14 20.48 22.99 20.05 23.76C19.88 24.07 19.69 24.42 19.69 24.76C19.67 24.92 19.67 25.06 19.75 25.2C19.97 25.55 20.68 26.17 21.98 26.27C22.9 26.24 23.55 26.17 24.28 25.69C26.13 24.47 26.52 23.01 26.72 22.5C26.91 22.04 26.67 22 26.39 21.95C26.18 21.91 25.95 21.87 25.88 21.63C25.7 21.05 25.88 20.41 26.32 19.99C26.83 19.54 27.31 19.11 27.76 18.68C31.33 15.38 33.37 12.92 34.53 11.14C36.14 8.69 36.15 7.51 36.22 7.14C36.8 7.33 37.3 7.69 37.65 8.18C38.07 8.78 38.22 9.51 38.12 10.29C38.09 10.52 38.04 10.76 37.97 11C37.25 13.39 31.85 17.59 31.85 17.59C33.65 16.62 35.71 15.19 37.36 13.75C37.87 13.3 38.43 12.78 38.95 12.22C39.69 11.43 40.35 10.57 40.69 9.75C40.78 9.54 41.09 9.5 41.26 9.66C42.79 11.16 41.96 13.36 40.75 14.71C39.07 16.6 32.46 19.62 32.46 19.62C33.88 19.52 35.29 19 36.82 18.47ZM23.09 21.87C22.54 21.48 22.72 20.48 23.21 20C26.7 16.58 27.23 9.93 25.65 7.56C29.17 8.42 28.38 12.91 27.71 14.71C27.71 14.71 31.22 10.11 30.05 7.29C32.16 7.14 32.25 9.15 32.25 10.2C32.27 13.53 28.03 17.59 25.85 19.62C25.24 20.19 24.69 21.13 25.43 21.89C25.63 22.1 25.85 22.32 25.83 22.62C25.75 23.96 24.67 24.89 24.01 25.29C23.37 25.69 22.84 25.78 22.02 25.81C21.82 25.81 21.41 25.73 21.16 25.54C24.31 25.11 24.34 22.98 24.34 22.55C24.38 22.02 24.11 21.97 23.78 21.99C23.56 22.01 23.3 22.02 23.09 21.87ZM15.67 16.78C15.72 16.85 15.79 16.95 15.82 17.02C15.98 17.27 15.99 17.36 15.99 17.36C15.99 17.36 15.76 18.37 15.12 18.92C14.96 19.05 14.56 19.18 14.13 19.25C14.06 19.18 13.94 19.09 13.88 18.99C13.84 18.93 13.81 18.85 13.78 18.77C13.73 18.64 13.69 18.53 13.65 18.63C13.56 18.88 13.57 19.17 13.59 19.32C13.33 19.35 13.09 19.35 12.95 19.3C11.67 19.14 10.69 18.1 10.69 16.77C10.69 15.45 11.71 14.36 13.03 14.23C13.04 13.66 13.22 13.18 13.6 12.74C13.65 12.68 13.71 12.62 13.71 12.56C13.52 12.62 13.32 12.65 13.08 12.65C12.67 12.65 12.17 12.56 11.65 12.44C11.29 12.37 10.94 12.33 10.62 12.33C9.34 12.33 8.54 12.9 8.32 13.88C8.84 13.19 9.58 12.84 10.57 12.84C11.07 12.84 11.55 12.92 11.93 12.99C12.18 13.03 12.38 13.07 12.52 13.07C12.2 14.01 11.51 14.47 10.38 14.47C10.16 14.47 9.94 14.46 9.77 14.44C9.68 14.43 9.6 14.43 9.51 14.43C9.04 14.43 8.2 14.55 7.88 15.31C7.39 14.55 7.33 13.56 7.7 12.73C8.05 11.92 8.77 11.37 9.64 11.22C9.88 11.18 10.11 11.16 10.32 11.16C11.11 11.16 11.6 11.43 12.08 11.69C12.48 11.92 12.86 12.15 13.39 12.15C13.67 12.16 13.98 12.05 14.28 11.95C14.55 11.86 14.8 11.78 15.02 11.78C15.22 11.78 15.65 11.87 15.67 12.12C15.68 12.22 15.6 12.33 15.44 12.36C15.13 12.43 14.66 12.52 14.13 12.98C13.85 13.22 13.64 13.55 13.58 13.97C13.55 14.06 13.54 14.15 13.56 14.25C13.65 14.27 13.72 14.27 13.9 14.32C14.35 14.43 14.77 14.62 15.1 14.92C15.23 15.06 15.24 15.22 15.23 15.41C15.23 15.46 15.24 15.58 15.25 15.72C15.12 15.85 14.79 16.2 14.68 16.51C14.64 16.63 14.76 16.56 14.9 16.48C14.98 16.43 15.07 16.38 15.15 16.35C15.24 16.32 15.32 16.3 15.39 16.29C15.43 16.41 15.49 16.53 15.57 16.65C15.6 16.69 15.63 16.73 15.67 16.78ZM21.33 16.54L21.66 15.37C21.66 15.37 21.92 14.68 21.79 14.72C21.66 14.77 21.04 15.89 20.81 16.07C20.59 16.26 20.3 16.58 20.3 16.58L20.78 16.99L21.33 16.54ZM6.09 22C5.9 22.16 5.88 22.49 6.05 22.67C6.12 22.74 6.2 22.78 6.27 22.85C6.42 22.97 6.5 23.14 6.64 23.27C6.69 23.33 6.75 23.37 6.82 23.4C7.52 24.42 7.65 24.79 8.05 25.64C8.32 26.22 8.6 26.81 8.87 27.39C8.91 27.48 8.96 27.55 8.99 27.62C9.09 27.78 9.15 27.89 9.14 28.14C9.14 28.29 9.19 28.55 9.32 28.61C9.39 28.64 9.65 28.76 9.73 28.74C10.27 28.62 10.55 28.65 10.96 28.69C11.11 28.7 11.27 28.72 11.47 28.73C11.56 28.73 11.63 28.74 11.72 28.76C11.2 27.29 11.62 25.93 11.71 25.67C11.39 25.87 11 26.06 10.82 25.92C10.69 25.81 10.12 24.75 10.03 24.62C9.47 23.87 8.69 23.07 8.14 22.32C8.07 22.23 7.6 21.28 7.68 20.54C7.75 20.04 7.82 19.32 8.17 18.9C8.35 18.68 8.58 18.47 8.65 18.19C8.72 17.95 8.65 17.7 8.58 17.46C8.52 17.27 8.47 17.08 8.42 16.88C8.34 16.64 8.25 16.36 8.01 16.26C8.01 16.46 7.94 16.65 7.85 16.83C7.85 16.87 7.85 16.91 7.86 16.95C7.89 17.02 7.91 17.11 7.93 17.18C8.02 17.51 7.89 17.83 7.76 18.09C7.76 18.06 7.77 18.04 7.77 18.01C7.8 17.74 7.82 17.48 7.69 17.26C7.66 17.2 7.63 17.14 7.59 17.09C7.53 17 7.5 16.91 7.49 16.83C7.48 16.76 7.48 16.71 7.47 16.65C7.32 16.53 7.13 16.45 6.93 16.47C7.02 16.64 7.03 16.83 6.99 17.01L7.02 17.34C7.03 17.46 7.05 17.48 7.1 17.65C7.13 17.78 7.14 17.92 7.08 18.06C7.01 18.19 6.93 18.25 6.86 18.35C6.88 18.25 6.93 18.1 6.94 18.03C6.94 17.94 6.89 17.84 6.83 17.75C6.78 17.71 6.66 17.53 6.64 17.43L6.57 17.24C6.45 17.12 6.26 17.06 6.1 17.14C6.29 17.22 6.32 17.49 6.25 17.68C6.18 17.88 6.04 18.05 5.99 18.24C5.93 18.47 5.98 18.7 6.03 18.93C6.06 19.08 6.1 19.22 6.1 19.37C6.11 19.56 6.07 19.74 6.03 19.93C5.99 20.12 5.94 20.32 5.96 20.52C6 20.91 6.25 21.28 6.28 21.68C6.28 21.74 6.28 21.81 6.24 21.86C6.21 21.91 6.14 21.96 6.09 22ZM19.16 17.78C19.24 17.79 19.32 17.78 19.35 17.64C19.37 17.57 19.39 17.44 19.38 17.35C19.4 17.15 19.3 16.95 19.22 16.83C19.2 16.79 19.13 16.74 19.1 16.72C19 16.67 18.73 16.6 18.7 16.67C18.61 16.64 18.54 16.61 18.54 16.61C18.54 16.61 18.48 16.74 18.62 16.84C18.61 16.9 18.63 16.97 18.68 17.08C18.69 17.09 18.72 17.16 18.73 17.18C18.73 17.18 18.75 17.22 18.78 17.27C18.94 17.53 19.1 17.76 19.16 17.78ZM25.87 38.9C25.11 37.77 25.22 36.62 25.08 35.11C25.01 34.38 24.72 34.01 24.46 33.9C23.31 33.38 22.54 33.47 22.26 33.55C22 34.01 21.88 35.12 21.82 35.53C21.62 36.92 22.48 38.54 22.93 39.4C23.04 39.61 23.13 39.78 23.17 39.88L23.3 40.36C23.41 41.08 23.43 41.78 23.34 42.4C23.27 42.88 22.49 44.58 21.77 45.06C21.06 45.52 20.61 46.44 20.56 46.69C20.51 46.94 20.49 47.64 19.89 48.29C19.3 48.93 19.42 49.03 19.71 49.28C20 49.52 20.07 50 20.07 50L20.28 49.7C20.21 49.6 20.14 49.51 20.09 49.4C20.02 49.21 20.02 48.99 20.1 48.82C20.17 48.66 20.29 48.52 20.38 48.37C20.33 48.54 20.24 48.68 20.22 48.86C20.17 49.02 20.22 49.16 20.3 49.29C20.44 49.51 20.73 49.69 20.98 49.88C21.03 49.79 21.08 49.69 21.16 49.62C21.22 49.56 21.27 49.51 21.32 49.45C21.17 49.3 21.04 49.13 21 48.91C20.97 48.71 21.03 48.56 21.1 48.42C21.15 48.32 21.19 48.23 21.19 48.12C21.23 48.24 21.22 48.38 21.21 48.5C21.2 48.63 21.19 48.75 21.24 48.84C21.33 49.03 21.55 49.16 21.74 49.23C21.81 49.26 21.85 49.31 21.88 49.37L22 49.4L22.02 49.07L22.29 48.37C22.29 48.37 22.16 47.64 22.34 47.28C22.54 46.92 22.37 46.31 22.79 45.79C23.21 45.27 24.63 44.23 24.87 43.75C25.11 43.26 25.6 42.83 25.6 42.83C25.92 42.62 26.16 42.22 26.12 41.88C26.1 41.69 25.77 41.3 25.77 41.3C25.77 41.3 24.5 40.47 25.87 38.9Z" fill="#FFFFFF" fill-opacity="1.000000" fill-rule="evenodd"/>
</svg>
